<svg width="91" height="91" viewBox="0 0 91 91" fill="none" xmlns="http://www.w3.org/2000/svg">
<rect x="1" y="1" width="89" height="89" rx="44.5" stroke="#2F4B26"/>
<rect x="5" y="5" width="81" height="81" rx="40.5" fill="#F4F7F5" stroke="#2F4B26" stroke-width="3"/>
<path d="M79.702 57.6547C77.9773 58.5249 76.229 58.6673 74.4569 58.0819C72.5741 57.4806 70.9523 56.199 69.5916 54.2371C68.8637 53.1928 68.2388 51.9824 67.7166 50.6059L66.9572 48.5885H61.3561L60.0982 51.5789C60.0191 51.7846 59.9796 51.9507 59.9796 52.0773C59.9796 52.2039 60.0033 52.3463 60.0508 52.5045C60.1141 52.6469 60.2327 52.7814 60.4068 52.908C60.5966 53.0187 60.8023 53.0741 61.0238 53.0741H61.2137V53.3115H56.1348V53.0741H56.3484C56.7123 53.0741 57.0683 52.9713 57.4164 52.7656C57.7803 52.5441 58.0809 52.2197 58.3182 51.7925L63.6108 39.7123C62.9937 38.3199 62.3371 37.3627 61.6409 36.8405C61.0555 36.3975 60.4938 36.176 59.9558 36.176C59.4337 36.176 58.9432 36.2551 58.4844 36.4133L58.4369 36.176C59.5761 35.5906 60.6678 35.2979 61.7121 35.2979C63.0095 35.2979 64.1725 35.8042 65.2009 36.8168C66.2135 37.8136 67.1075 39.2534 67.8828 41.1363L71.3241 49.6328C72.6215 52.8447 73.9506 55.0519 75.3113 56.2544C75.8651 56.7449 76.4347 57.0851 77.0201 57.2749C77.6055 57.4648 78.096 57.5597 78.4916 57.5597C78.9029 57.5597 79.2985 57.5123 79.6782 57.4173L79.702 57.6547ZM61.7596 47.568H66.6012L64.9398 43.1773C64.8607 42.9558 64.75 42.6552 64.6076 42.2755C64.4652 41.8799 64.3702 41.603 64.3228 41.4448L61.7596 47.568Z" fill="#2F4B26"/>
<path d="M64.1583 55.8272C62.7343 56.6342 61.1679 57.0376 59.4591 57.0376C56.8959 57.0376 54.4909 56.1674 52.2441 54.427C51.7853 54.0631 50.9784 53.4223 49.8233 52.5046C48.3993 53.2166 46.8329 53.5726 45.1241 53.5726C43.8742 53.5726 42.735 53.4143 41.7065 53.0979C40.6781 52.7656 39.8316 52.4017 39.1671 52.0062C38.5184 51.6106 37.9725 51.0885 37.5295 50.4398C37.1023 49.7752 36.8887 49.0237 36.8887 48.1851C36.8887 46.8877 37.4029 45.8118 38.4313 44.9574C38.9851 44.4985 39.618 44.1425 40.33 43.8894C39.6022 42.766 39.2383 41.7059 39.2383 40.7091C39.2383 39.7123 39.5072 38.8895 40.0452 38.2408C41.0578 36.9909 42.6717 36.3659 44.8868 36.3659C46.295 36.3659 47.4975 36.6191 48.4943 37.1254C49.0006 37.3785 49.3803 37.6871 49.6335 38.051L48.8265 41.4448H48.6129C48.5655 39.8468 48.1225 38.6839 47.2839 37.956C46.825 37.5605 46.2238 37.3627 45.4801 37.3627C44.7365 37.3627 44.1194 37.6238 43.6289 38.1459C43.1384 38.6522 42.8932 39.3247 42.8932 40.1632C42.8932 41.0018 43.2176 41.8325 43.8663 42.6552C44.515 43.4622 45.496 44.4352 46.8092 45.5744C48.1383 46.6978 49.7838 48.0743 51.7457 49.704C53.6444 47.7579 54.5937 45.5111 54.5937 42.9638C54.5937 41.0809 53.9925 39.3405 52.79 37.7424C51.9673 36.6507 50.8913 35.6618 49.5623 34.7758L49.7047 34.6334C51.1129 35.4403 52.2679 36.3896 53.1697 37.4814C54.0716 38.5573 54.6729 39.6095 54.9735 40.6379C55.2741 41.6505 55.4244 42.6315 55.4244 43.5808C55.4244 46.1757 54.483 48.4541 52.6001 50.416L53.3359 51.0331C54.0795 51.666 54.7045 52.1802 55.2108 52.5758C55.7329 52.9713 56.3737 53.4064 57.1332 53.8811C57.8927 54.3716 58.6047 54.7355 59.2692 54.9728C60.4559 55.4317 61.69 55.6611 62.9716 55.6611C63.3513 55.6611 63.7311 55.6374 64.1108 55.5899L64.1583 55.8272ZM40.6385 47.3782C40.6385 49.0395 41.224 50.329 42.3948 51.2467C43.3916 52.022 44.5466 52.4096 45.8599 52.4096C46.8883 52.4096 47.893 52.1881 48.874 51.7451C46.3583 49.7199 44.8235 48.4699 44.2697 47.9952C42.9723 46.9193 41.9597 45.9542 41.2319 45.0998C40.8363 45.7485 40.6385 46.5079 40.6385 47.3782Z" fill="#2F4B26"/>
<path d="M20.3874 36.6744C20.6564 36.6744 21.1469 36.6744 21.8589 36.6744C22.5709 36.6744 23.892 36.6823 25.8223 36.6982C28.6229 36.7298 30.838 37.4893 32.4677 38.9766C34.0974 40.448 34.9122 42.4654 34.9122 45.0286C34.9122 47.576 34.0974 49.5933 32.4677 51.0806C30.838 52.5679 28.6229 53.3115 25.8223 53.3115H17.2071V53.0742H17.5157C17.9112 53.0742 18.2514 52.9397 18.5362 52.6707C18.8368 52.3859 19.003 52.0457 19.0346 51.6502V37.7662C17.2625 37.8927 15.9493 38.3041 15.0949 39.0003C14.6677 39.3326 14.3354 39.6728 14.0981 40.0208C13.8449 40.3689 13.5997 40.7882 13.3623 41.2787L13.125 41.1838C13.5047 39.6016 14.2958 38.4624 15.4983 37.7662C16.7166 37.0542 18.3463 36.6903 20.3874 36.6744ZM25.5375 52.3147C27.2305 52.3147 28.5675 51.6581 29.5485 50.3448C30.5453 49.0316 31.0437 47.2516 31.0437 45.0048C31.0437 42.7581 30.5453 40.986 29.5485 39.6886C28.5675 38.3912 27.2463 37.7424 25.585 37.7424C25.5692 37.7424 25.5534 37.7424 25.5375 37.7424H22.5946V52.3147H25.5375Z" fill="#2F4B26"/>
</svg>
